 <svg  version="1.0" xmlns="http://www.w3.org/2000/svg"  width="300.000000pt" height="316.000000pt" viewBox="0 0 300.000000 316.000000"  preserveAspectRatio="xMidYMid meet">  <g transform="translate(0.000000,316.000000) scale(0.100000,-0.100000)" fill="#f5f4f4" stroke="none"> <path d="M1560 2834 c-75 -9 -227 -47 -292 -74 -83 -34 -201 -101 -248 -141 -35 -30 -35 -30 -6 -19 16 6 50 26 75 44 135 97 363 169 533 168 287 -1 446 -67 662 -274 44 -43 47 -48 22 -38 -16 6 -31 9 -33 6 -3 -2 5 -7 16 -11 20 -6 111 -100 111 -114 0 -4 -20 11 -44 35 -46 44 -129 78 -216 89 -148 19 -226 49 -343 134 -97 71 -122 81 -190 81 -66 -1 -133 -28 -263 -108 -60 -37 -124 -68 -160 -77 l-59 -15 54 4 c42 3 83 18 195 75 154 77 214 94 279 79 58 -13 94 -38 154 -107 80 -90 129 -110 295 -120 194 -13 231 -36 332 -213 44 -79 46 -85 39 -133 -13 -84 -10 -246 6 -285 20 -47 80 -134 136 -194 25 -28 45 -57 45 -66 0 -42 -152 -129 -227 -131 -41 -1 -43 -2 -18 -8 23 -5 29 -11 27 -26 -6 -35 -33 -47 -93 -43 -37 3 -66 12 -87 27 -43 30 -104 158 -142 296 -47 170 -60 215 -82 280 -117 352 -320 477 -652 400 -41 -10 -85 -13 -118 -9 -47 5 -62 2 -131 -30 -89 -40 -133 -51 -175 -41 -34 7 -72 39 -72 61 0 10 12 2 34 -20 26 -28 41 -36 68 -36 71 0 116 72 88 141 -26 63 -118 76 -160 22 -11 -14 -20 -20 -20 -14 0 18 47 61 66 61 10 0 14 5 10 15 -4 11 1 15 17 15 21 1 21 1 -3 15 -30 17 -32 17 100 19 58 1 116 7 130 14 21 10 18 10 -20 4 -51 -8 -111 -8 -184 -2 -49 5 -49 5 -92 -48 -26 -31 -50 -74 -59 -105 -49 -169 108 -219 334 -107 76 38 111 11 111 -88 0 -34 -8 -61 -30 -97 -54 -91 -137 -165 -185 -165 -181 0 -303 -189 -190 -296 45 -42 78 -47 175 -24 88 22 110 20 181 -16 90 -45 128 -115 115 -210 -13 -99 -84 -186 -241 -297 -411 -291 -453 -322 -554 -420 -65 -64 -89 -103 -73 -119 6 -6 49 -3 111 7 183 31 292 -1 510 -149 212 -142 354 -192 521 -183 101 5 181 28 258 73 l44 26 -30 32 c-17 17 -43 55 -57 85 -37 72 -33 159 9 219 49 72 64 77 164 57 163 -33 298 -4 349 74 27 40 28 69 8 148 -24 91 -21 104 37 185 10 14 8 21 -11 41 -25 27 -24 29 32 47 35 11 38 15 32 39 -27 106 -17 127 74 160 69 25 106 52 127 92 19 37 12 51 -72 142 -34 38 -75 92 -90 120 -29 52 -29 52 -30 242 0 200 -3 214 -54 315 -150 294 -424 472 -745 484 -55 2 -116 2 -135 0z m387 -306 c34 -13 36 -14 93 -29 25 -6 57 -11 71 -10 15 1 37 -3 50 -9 18 -8 -2 -9 -76 -7 -106 4 -156 19 -205 61 -35 29 -28 41 11 20 16 -8 41 -20 56 -26z m-922 -74 c22 -9 46 -59 38 -81 -19 -56 -84 -72 -123 -31 -27 29 -25 64 5 93 24 25 49 31 80 19z m662 -115 c55 -12 154 -71 188 -111 14 -18 33 -41 41 -51 8 -9 14 -21 14 -26 0 -5 3 -11 8 -13 25 -11 112 -234 127 -328 4 -25 10 -49 13 -55 10 -16 11 -35 2 -35 -9 0 -50 102 -50 123 0 7 -4 17 -9 23 -4 5 -20 41 -35 79 -53 135 -131 254 -200 303 -93 67 -220 81 -346 39 -76 -25 -106 -20 -99 18 9 44 210 64 346 34z m9 -66 c36 -12 67 -34 116 -84 80 -82 130 -178 232 -452 77 -206 105 -265 154 -326 59 -72 127 -93 220 -65 20 6 22 3 22 -34 0 -32 -5 -44 -27 -60 -22 -16 -27 -27 -26 -58 1 -22 -7 -58 -19 -82 -15 -32 -19 -54 -14 -90 20 -174 20 -167 -9 -196 -57 -57 -86 -55 -220 13 -140 70 -258 170 -303 256 -32 61 -63 145 -54 145 4 0 2 4 -5 8 -6 4 -23 61 -38 127 -43 193 -79 281 -158 385 -51 67 -71 87 -122 125 -22 17 -44 36 -48 42 -11 17 -27 16 -27 -1 0 -7 18 -26 41 -42 22 -15 69 -59 104 -96 92 -99 136 -195 190 -414 55 -221 91 -299 180 -387 69 -70 188 -145 295 -187 39 -14 73 -30 77 -35 13 -13 -137 3 -217 24 -100 27 -163 55 -235 106 -69 49 -87 69 -132 144 -44 73 -68 140 -109 301 -18 74 -46 160 -61 190 -48 93 -130 138 -263 141 -58 2 -68 9 -39 25 l24 13 -31 1 c-17 0 -52 -11 -78 -25 -77 -41 -181 -30 -200 22 -4 10 -2 13 7 10 10 -4 9 5 -5 31 -19 37 -23 79 -10 98 4 6 29 23 55 37 26 14 42 27 35 30 -7 2 14 10 47 16 33 7 70 17 83 22 46 18 130 8 216 -27 13 -5 17 -4 13 3 -7 12 -96 43 -121 43 -22 0 -20 23 4 45 38 35 90 131 90 167 0 30 5 37 38 53 112 55 236 69 328 38z m-273 -668 c58 -38 87 -107 136 -320 43 -193 121 -342 201 -385 11 -6 18 -15 15 -20 -24 -38 -176 172 -215 296 -75 242 -126 347 -199 419 -23 21 -41 42 -41 47 0 9 71 -16 103 -37z m-16 -92 c30 -38 63 -114 107 -247 74 -219 136 -327 230 -394 45 -33 159 -86 122 -57 -11 8 -24 15 -30 15 -5 0 -7 2 -4 5 3 3 22 -2 42 -10 35 -15 55 -39 43 -52 -4 -3 -55 5 -114 17 -135 29 -275 32 -354 7 -84 -25 -166 -85 -225 -164 -49 -65 -79 -113 -71 -113 2 0 25 31 50 70 86 129 201 198 347 207 88 6 296 -19 314 -37 6 -6 4 -16 -6 -27 -28 -34 -58 -121 -58 -172 0 -28 5 -51 10 -51 6 0 10 -14 10 -30 0 -18 6 -33 15 -36 8 -4 15 -12 15 -19 0 -7 7 -18 15 -25 29 -24 17 -45 -42 -72 -74 -33 -99 -38 -203 -39 -85 -2 -143 9 -210 38 -41 18 -63 26 -107 43 -17 6 -39 20 -49 31 -9 10 -23 19 -30 19 -23 0 -83 61 -77 79 4 12 2 12 -9 -3 -14 -18 -16 -17 -60 16 -62 47 -173 104 -165 85 5 -12 -4 -11 -41 6 -36 16 -69 21 -141 23 -52 1 -109 -2 -128 -6 -44 -10 -44 7 0 52 42 42 134 120 155 132 10 5 19 12 22 15 10 12 88 71 94 71 3 0 14 8 25 18 10 9 42 33 70 52 54 37 136 94 241 170 35 25 83 71 107 104 24 32 43 52 43 45 1 -23 39 82 45 125 4 26 1 57 -8 84 -16 45 -13 53 10 25z"/> <path d="M979 1841 c-68 -69 -8 -184 86 -167 40 8 75 57 75 105 0 47 -47 91 -95 91 -27 0 -44 -8 -66 -29z m109 -7 c27 -19 30 -78 5 -106 -25 -28 -77 -24 -102 8 -27 35 -26 59 4 89 28 29 61 32 93 9z"/> <path d="M1535 2744 c-16 -8 -21 -11 -10 -8 11 4 47 9 80 11 49 4 68 0 107 -20 26 -13 45 -20 41 -14 -3 5 -24 18 -47 28 -49 22 -129 24 -171 3z"/> <path d="M2125 2539 c22 -4 49 -8 60 -7 16 0 15 2 -5 8 -14 4 -41 8 -60 8 l-35 0 40 -9z"/> <path d="M639 2501 c-20 -16 -22 -23 -14 -47 18 -51 95 -40 95 13 0 15 -35 53 -49 53 -5 0 -19 -9 -32 -19z"/> <path d="M424 2326 c-9 -24 4 -48 23 -44 12 2 18 12 18 28 0 29 -32 41 -41 16z"/> <path d="M722 2300 c-45 -19 -50 -100 -7 -116 12 -5 14 -20 9 -78 -7 -97 -12 -116 -29 -116 -8 0 -22 -11 -31 -25 -15 -23 -22 -25 -89 -25 -52 0 -76 4 -85 15 -16 19 -44 19 -60 0 -29 -34 13 -80 52 -56 12 8 53 16 90 19 64 4 68 3 98 -26 l30 -31 -10 -88 c-5 -48 -10 -96 -10 -106 0 -9 -11 -23 -25 -29 -13 -6 -27 -19 -30 -30 -5 -15 -17 -18 -64 -18 -41 0 -62 5 -71 15 -16 20 -49 16 -64 -7 -23 -37 36 -77 64 -43 8 10 30 15 67 15 47 0 58 -4 75 -25 11 -14 28 -25 38 -25 14 0 22 -11 31 -42 42 -161 78 -289 84 -297 3 -6 -3 -19 -15 -31 -26 -26 -26 -64 2 -90 46 -42 115 -8 106 54 -5 29 2 37 110 131 82 72 120 99 136 97 65 -11 97 -6 124 21 40 40 38 99 -6 138 -44 40 -93 40 -132 0 l-29 -29 -166 51 c-108 33 -165 55 -165 64 0 8 -11 25 -24 38 -24 24 -24 25 -13 135 7 72 14 110 22 110 19 0 45 34 45 58 0 18 24 34 146 92 81 38 149 70 151 70 2 0 11 -7 19 -15 36 -35 116 -6 129 48 19 75 -85 131 -138 73 l-22 -24 -123 32 c-119 30 -124 32 -137 64 -8 17 -18 32 -24 32 -5 0 -15 2 -23 4 -7 3 -23 1 -36 -4z m52 -73 c-8 -21 -28 -22 -45 -1 -11 14 -10 18 6 30 16 12 21 12 32 1 8 -7 11 -21 7 -30z m165 -47 c100 -26 131 -40 131 -60 0 -3 -67 -37 -149 -76 -184 -88 -186 -88 -175 41 6 79 9 87 30 96 13 4 24 13 24 19 0 14 12 13 139 -20z m233 -7 c21 -19 23 -42 5 -67 -18 -24 -65 -12 -80 21 -10 22 -8 28 12 44 29 23 39 24 63 2z m-434 -244 c-4 -28 -26 -31 -42 -6 -9 15 -7 21 8 33 24 17 39 5 34 -27z m-38 -334 c12 -15 7 -45 -8 -45 -4 0 -17 6 -27 14 -16 11 -17 15 -4 29 18 20 24 21 39 2z m224 -100 c83 -25 151 -47 152 -48 1 -1 4 -20 8 -42 6 -39 5 -41 -51 -89 -32 -26 -78 -67 -103 -90 -73 -67 -75 -68 -104 -56 -14 5 -26 17 -26 27 -1 10 -20 88 -45 172 -40 143 -42 156 -27 168 9 7 24 10 32 8 8 -3 82 -25 164 -50z m300 -27 c29 -41 11 -84 -40 -94 -35 -6 -59 11 -68 48 -13 58 74 94 108 46z m-395 -351 c12 -15 5 -27 -16 -27 -7 0 -13 9 -13 20 0 23 13 26 29 7z"/> <path d="M1993 2169 c93 -119 133 -212 231 -540 23 -77 80 -179 93 -166 3 3 -4 16 -16 28 -30 32 -57 96 -81 190 -62 244 -127 388 -216 485 l-55 59 44 -56z"/> <path d="M536 2159 c-31 -25 -34 -61 -6 -89 24 -24 48 -25 78 -4 28 19 29 67 2 94 -25 25 -41 25 -74 -1z m50 -40 c3 -6 2 -15 -2 -19 -12 -12 -38 5 -30 19 9 14 23 14 32 0z"/> <path d="M293 2064 c-3 -8 1 -22 9 -30 13 -14 17 -14 32 1 13 13 14 20 5 31 -15 19 -38 18 -46 -2z"/> <path d="M241 1773 c-23 -16 -28 -52 -9 -71 18 -18 53 -14 73 8 37 40 -19 95 -64 63z"/> <path d="M310 1395 c-11 -13 -11 -18 2 -31 20 -20 50 -7 46 20 -4 26 -30 32 -48 11z"/> <path d="M549 1289 c-17 -33 3 -69 39 -69 33 0 52 16 52 45 0 29 -19 45 -52 45 -18 0 -31 -7 -39 -21z"/> </g> </svg> 